<svg xmlns="http://www.w3.org/2000/svg"><symbol id="1" viewBox="0 0 56 56"><path d="M47.4 8.5a27.5 27.5 0 1 0 0 38.9 27.5 27.5 0 0 0 0-38.9zm-16.5 28h-3.4V23.4l-4 1.2v-2.7l7.1-2.5h.4z"/></symbol><symbol id="2" viewBox="0 0 56 56"><path d="M47.4 8.5a27.5 27.5 0 1 0 0 38.9 27.5 27.5 0 0 0 0-38.9zm-13.7 28H22v-2.3l5.5-5.9a13.6 13.6 0 0 0 1.7-2.2 3.5 3.5 0 0 0 .5-1.8 2.6 2.6 0 0 0-.6-1.8 2.1 2.1 0 0 0-1.6-.7 2.2 2.2 0 0 0-1.8.8 3.1 3.1 0 0 0-.7 2.1h-3.4a5.6 5.6 0 0 1 .7-2.8 5.2 5.2 0 0 1 2.1-2 6.4 6.4 0 0 1 3.1-.7 6.1 6.1 0 0 1 4.1 1.3 4.5 4.5 0 0 1 1.5 3.5 5.7 5.7 0 0 1-.7 2.6 14.3 14.3 0 0 1-2.3 3.1l-3.9 4.1h7.3z"/></symbol><symbol id="3" viewBox="0 0 55.3 55.3"><path d="M47.1 8.2a27.5 27.5 0 1 0 0 38.9 27.5 27.5 0 0 0 0-38.9zM31.9 35a6.7 6.7 0 0 1-4.4 1.4 6.3 6.3 0 0 1-4.2-1.4 4.4 4.4 0 0 1-1.6-3.6h3.4a2 2 0 0 0 .7 1.6 3 3 0 0 0 3.7 0 2.2 2.2 0 0 0 .7-1.7q0-2.6-2.8-2.6h-1.8v-2.6h1.8a2.5 2.5 0 0 0 1.9-.6 2.4 2.4 0 0 0 .6-1.7 2.1 2.1 0 0 0-.6-1.6 2.4 2.4 0 0 0-1.7-.6 2.5 2.5 0 0 0-1.6.5 1.7 1.7 0 0 0-.7 1.4h-3.4a4.2 4.2 0 0 1 .7-2.4 4.8 4.8 0 0 1 2-1.7 6.7 6.7 0 0 1 2.9-.6 6.4 6.4 0 0 1 4.2 1.3 4.4 4.4 0 0 1 1.5 3.6 3.6 3.6 0 0 1-.7 2.2 4.6 4.6 0 0 1-1.9 1.5 4.2 4.2 0 0 1 2.2 1.5 4.2 4.2 0 0 1 .7 2.4 4.5 4.5 0 0 1-1.6 3.7z"/></symbol><symbol id="4" viewBox="0 0 55.9 55.9"><path d="M23.7 30h3.8v-6l-.2.4-3.6 5.6z"/><path d="M47.4 8.5a27.5 27.5 0 1 0 0 38.9 27.5 27.5 0 0 0 0-38.9zM32.8 32.8h-1.9v3.7h-3.4v-3.7h-7l-.2-2.1 7.1-11.2h3.4V30h1.9z"/></symbol></svg>