<svg id="Isolation_Mode" data-name="Isolation Mode" xmlns="http://www.w3.org/2000/svg" width="1.9in" height="1.8in" viewBox="0 0 137.4 127.9"><title>heads</title><path d="M92.4,84.7c-8.4-2.3-15.3-5.6-12.7-15.6,1.1-4.1,3.7-7.1,5.6-10.9A40,40,0,0,0,89,44.6a90.9,90.9,0,0,0-.2-12.1c-.2-4.5-1.3-6.8-3.9-10.4s-9.8-10-16-10.5H67.8C61.6,12,54.9,17.6,51.6,22S47.9,28,47.7,32.5a91.2,91.2,0,0,0-.2,12.1,40.1,40.1,0,0,0,3.7,13.6C53,62,55.7,65,56.7,69.1c2.6,10-4.3,13.3-12.7,15.6s-16.8,2.2-21.4,9.6c-1.4,2.2-2.9,8.3-.4,10.3l.9.5h.3l1,.3h.2l1.4.2h84.2l1.4-.2h.2l1-.3h.3l.9-.5c2.5-2,1-8.1-.4-10.3C109.2,86.9,99.8,86.7,92.4,84.7ZM132.6,76c-2.6-4.2-8-4.3-12.1-5.5s-8.7-3.2-7.2-8.9c.6-2.3,2.1-4,3.2-6.2a22.8,22.8,0,0,0,2.1-7.7,52.5,52.5,0,0,0-.1-6.9,9.5,9.5,0,0,0-2.2-5.9c-1.8-2.5-5.6-5.7-9.1-6h-.6c-3.5.3-7.3,3.4-9.1,6a9.5,9.5,0,0,0-2.2,5.9,52,52,0,0,0-.1,6.9A22.7,22.7,0,0,0,97,55.5c1,2.2,2.6,3.9,3.2,6.2,1.5,5.7-2.5,7.5-7.2,8.8-3.2.9-7.1,1.2-9.9,3.1.2,3.1,2.8,5.2,10.4,7.3L98.3,82l3,.6h24.8c1.6,0,5.5.2,6.7-.8S133.4,77.2,132.6,76ZM43,80.9c7.8-2.2,10.3-4.3,10.4-7.5-2.8-1.7-6.5-2-9.5-2.9-4.8-1.3-8.7-3.2-7.2-8.9.6-2.3,2.1-4,3.2-6.2a22.8,22.8,0,0,0,2.1-7.7,52.5,52.5,0,0,0-.1-6.9,9.5,9.5,0,0,0-2.2-5.9c-1.8-2.5-5.6-5.7-9.1-6h-.6c-3.5.3-7.3,3.4-9.1,6a9.5,9.5,0,0,0-2.2,5.9,52.2,52.2,0,0,0-.1,6.9,22.7,22.7,0,0,0,2.1,7.7c1,2.2,2.6,3.9,3.2,6.2,1.5,5.7-2.5,7.5-7.2,8.8S6.8,71.7,4.2,76c-.8,1.3-1.6,4.7-.2,5.9s5.1.8,6.7.8H35.2l3-.6Z" fill="#29b5b5"/></svg>