<svg xmlns="http://www.w3.org/2000/svg"><symbol id="heart" viewBox="0 0 137.4 127.9"><path fill="#aededd" d="M116.4 21.3a27.7 27.7 0 0 0-40.9 0L67.3 30l-8-8.5a27.7 27.7 0 0 0-40.9 0 32.3 32.3 0 0 0 0 43.6l49 52.2 40.9-43.6h-.1l8.2-8.7a32.3 32.3 0 0 0 0-43.7z"/></symbol><symbol id="house" viewBox="0 0 137.4 127.9"><path fill="#aededd" d="M119.5 54.2L71.1 10.6a6.5 6.5 0 0 0-8.5 0L14.2 54.2c-2.3 2.1-1.7 3.8 1.5 3.8h11.5l5.5 55.9c0 3.7 2.5 6.7 5.7 6.7h19.9v-16.5a8.5 8.5 0 1 1 17.1 0v16.5h19.9c3.1 0 5.7-3 5.7-6.7l5.7-55.9h11.4c3.1 0 3.8-1.7 1.4-3.8z"/></symbol><symbol id="paw" viewBox="0 0 137.4 127.9"><path fill="#aededd" d="M52.3 9a14.1 14.1 0 0 1 9.2 6.9 31.9 31.9 0 0 1 3.2 7.2 33.7 33.7 0 0 1-1.8 24.4 17.9 17.9 0 0 1-5.3 6.8 10.6 10.6 0 0 1-14.2-.7c-3.7-3.4-5.7-7.7-6.8-12.5a34.2 34.2 0 0 1 1.3-20.6c2.1-5.6 5.4-10 11.6-11.5zm35.5 0c4.9 1.1 8.1 4.2 10.2 8.5a31.9 31.9 0 0 1 2.7 7.2c1.9 8.6 1.2 16.9-3.3 24.6-1.9 3.2-4.4 5.8-8.1 6.9s-8.5-.4-11.7-3.9a24.8 24.8 0 0 1-5.8-12.5A34.4 34.4 0 0 1 73.6 20c1.6-4 4-7.4 7.8-9.5A26.7 26.7 0 0 1 85 9zm6.5 111.6a22.5 22.5 0 0 1-11.8-3.7 17 17 0 0 0-8.4-2.5c-3.6-.2-7.2-.4-10.7.6a24.7 24.7 0 0 0-5.1 2.2 21.3 21.3 0 0 1-13.1 3.1 24.5 24.5 0 0 1-5.5-1.1 11 11 0 0 1-6.7-14.3 37.1 37.1 0 0 1 3.2-6.9 159.9 159.9 0 0 1 13.5-19.9 72 72 0 0 1 6-6.6 19.2 19.2 0 0 1 10.9-4.8 26.9 26.9 0 0 1 13.7 1.4c3.4 1.3 5.9 3.7 8.2 6.4a156.5 156.5 0 0 1 18.6 27.1 13.6 13.6 0 0 1 1.6 9.6c-1 4.6-4 7.4-8.5 8.5a56.8 56.8 0 0 1-5.9.9zm.9-52.7c.9-9.3 4.4-17.2 12.7-22.3a9.8 9.8 0 0 1 8.3-1.3c3.9 1.2 5.6 4.3 6.4 8 1.3 6.2-.4 12-3.4 17.4a22 22 0 0 1-9.5 9.5c-6.6 3.2-12.7.1-14-7.2-.2-1.3-.3-2.7-.5-4.1zm-53 .4a45.5 45.5 0 0 1-1.1 5.5c-1.9 5.9-7.2 8.2-12.9 5.7a21.2 21.2 0 0 1-9-8 27.1 27.1 0 0 1-4.9-15.8 18.5 18.5 0 0 1 .8-4.9c1.8-6 7.1-8.4 12.9-5.9a21.1 21.1 0 0 1 9.1 8.1 29.8 29.8 0 0 1 5.1 15.3z"/></symbol><symbol id="world" viewBox="0 0 137.4 127.9"><g fill="#aededd"><path d="M68.7 7.4a56.5 56.5 0 1 0 56.5 56.5A56.5 56.5 0 0 0 68.7 7.4M19 63.9a49.4 49.4 0 0 1 9.5-29.2c5.5 3.9.1 15.1 9.2 18.7.6.3 1.7-.8 3.1 0s2 1.7 2.8 3.4 1.1 4.2 4.2 6.5 10.2 4.2 15 6.2 5.9 4.8 4 10.7.8 8.2 4 12.1 5.4 4 4.8 9.9c-.3 3.8-5.3 8.2-5.1 11.3h-1.8A49.8 49.8 0 0 1 19 63.9m63.2 47.8a12.6 12.6 0 0 0 2.9-2.6c2.3-2.3 4.2-5.6 6.5-7.6s5.6-3.4 7.9-6.5c3.1-5.4 7.6-10.7 2.3-14.4a28.2 28.2 0 0 1-6.8-6.2c-2.5-3.1-4.5-2.8-7.9-3.7s-5.4-2.8-7.9-3.1-5.1 1.4-7.9 1.1-2.8-2.5-5.1-4.8-2.8-.3-3.7-1.1.8-3.1-.3-4.2-5.9.3-7.9-1.7 1.1-5.6 3.4-6.8c6.5-2.8 11.9 8.8 13.3.3.8-5.4 1.7-10.5 8.2-11.9 2-.6 5.9 1.7 7.6-.6s-2.3-2.8-3.4-4.8c2.5-.6 6.2 0 5.6-3.4s-5.6-3.4-7.9-4-5.4-3.4-7.9-3.1-2 4.2-4.5 5.9c-5.9 4-14.1-2.3-6.2-8.2l1.3-.7c6.2-.4 11.7 1.7 17.7 2.7a1.4 1.4 0 0 0 1.6-2.1c-.8-1.9-2.6-3.1-4.6-4.1l.8-.8A49.3 49.3 0 0 1 90 19c1.2 1.7 2.2 3.6 3.5 5.3a7.9 7.9 0 0 0 2 2 5 5 0 0 0 1.8.5l1.7 1.1c.6 1.2 0 2.9 1.7 3.8s3.7.8 5.6 1.3a1.3 1.3 0 0 0 1-.1 49.7 49.7 0 0 1-25.2 79"/><path d="M69.4 55a1.4 1.4 0 0 0-.6 2.7 1.2 1.2 0 0 0 .9.8 37.8 37.8 0 0 1 6 1.9c1.3.5 2.4-1.4 1.4-2.4a11.4 11.4 0 0 0-7.7-3zm13.4 3a8 8 0 0 0-1.8-.7h-.7c-1.6-.2-2.3 2.4-.6 2.7a6.3 6.3 0 0 1 1.7.4 1.4 1.4 0 0 0 1.4-2.4zm2.6-2.1a1.4 1.4 0 0 0 0 2.8 1.4 1.4 0 0 0 0-2.8z"/></g></symbol></svg>