<svg xmlns="http://www.w3.org/2000/svg" width="3.6in" height="3.6in" data-name="Layer 2" viewBox="0 0 256 256"><path fill="#35716f" d="M239.7 40.3c3.6.8 3.3 8.6 1.7 16.5 0 0-14.7-4.8-15.5-9s12-7.8 12-7.8z"/><path fill="#afdedc" d="M220.2 42.7s10.8-3.2 17.7-2.7c0 0-12.9 3.5-12.1 7.7s15.5 9 15.5 9c-1.4 6.8-3.7 13.5-5.5 15.7-3.8 4.7-24.6 7.1-37 2.4-5.2-10.4-17.1-27.5-29.9-33.7C185 24 202.5 26.8 208.7 27.4s11.5 15.3 11.5 15.3zM206.6 41a3.2 3.2 0 1 0-3.2 3.2 3.2 3.2 0 0 0 3.2-3.2z"/><path fill="#35716f" d="M203.4 37.8a3.2 3.2 0 1 1-3.2 3.2 3.2 3.2 0 0 1 3.2-3.2z"/><path fill="#afdedc" d="M200.3 189.1c.5 6.2-8.5 9.5-23.7 3.8-.5-14.7-4.3-42.7-4.3-42.7 4.7-6.3 9.9-9.8 14-14.8a29.9 29.9 0 0 0 5.3-9.7s-5.4 35.9-5.3 56.3c6.5-1.4 13.5 1 14 7.1z"/><path fill="#35716f" d="M198.9 74.9c1.9 9.5.9 11.4-5.7 17.1l-20.9-2.9c-17.5-2.4-3.3-47.9-3.3-47.9 12.8 6.2 24.7 23.3 29.9 33.7z"/><path fill="#2bb4b4" d="M193.2 92c1.8 16.5.9 26.7-1.5 33.8a29.9 29.9 0 0 1-5.3 9.7c-19.7 19.7-46.7 26.2-46.7 26.2-17.5-.5-43.1-13.3-43.1-13.3s-43-21.7-50.7-41.4a60.7 60.7 0 0 1 10.3-6.5c-7.2-13.8-9.3-25-8.5-33.9 4.9 15.4 23 28.6 30.6 33.6a18 18 0 0 0 3.4 2.1c26 12.4 72.1-45.1 87.2-61.1 0 0-14.2 45.5 3.3 47.9z"/><path fill="#35716f" d="M164.3 207.2s17.1 5.7 12.8 12.8-28 2.6-28 2.6 3.3-40.6-9.5-60.9c0 0 27.1-6.5 46.7-26.2-4.1 5.1-9.3 8.6-14 14.8-11.3 15.1-8 56.9-8 56.9z"/><path fill="#afdedc" d="M75.7 33.7l14.6 10.4c-18.5.9-37.9 31.8-13.3 55l1.3 1.1c-7.7-5-25.7-18.2-30.6-33.6 2.4-25.2 28-32.9 28-32.9z"/><path fill="#35716f" d="M96.5 148.4S83.6 159 61.9 166.5a132.3 132.3 0 0 1-14.7 4.2A82.6 82.6 0 0 1 14 182c1.6-25.2 8.7-57.1 31.9-75.1 7.7 19.8 50.6 41.5 50.6 41.5z"/><path fill="#afdedc" d="M58.4 184.3c11.3 2 13 5.4 12.8 8.9-.5 9-10.7 8.1-25.9 2.4.6-7.9 2.4-15.2.6-23.9l1.3-1.1a132.3 132.3 0 0 0 14.7-4.2c-4.6 5.8-3.5 13.1-3.5 17.9z"/><path fill="#2bb4b4" d="M33 205.7s20.4 5.2 13.3 13.3-31.3 0-31.3 0a197.7 197.7 0 0 1-1-37 82.6 82.6 0 0 0 33.2-11.4l-1.3 1.1c-10.3 9.6-12.9 34-12.9 34z"/></svg>