<svg id="Layer_2" data-name="Layer 2" xmlns="http://www.w3.org/2000/svg" width="3.6in" height="3.6in" viewBox="0 0 256 256"><title>Artboard 1</title><path d="M239.7,40.3c3.6.8,3.3,8.6,1.7,16.5,0,0-14.7-4.8-15.5-9S237.9,40,237.9,40Z" fill="#35716f"/><path d="M220.2,42.7S231,39.5,237.9,40c0,0-12.9,3.5-12.1,7.7s15.5,9,15.5,9c-1.4,6.8-3.7,13.5-5.5,15.7-3.8,4.7-24.6,7.1-37,2.4-5.2-10.4-17.1-27.5-29.9-33.7,16.1-17.1,33.6-14.3,39.8-13.7S220.2,42.7,220.2,42.7ZM206.6,41a3.2,3.2,0,1,0-3.2,3.2A3.2,3.2,0,0,0,206.6,41Z" fill="#afdedc"/><path d="M203.4,37.8a3.2,3.2,0,1,1-3.2,3.2A3.2,3.2,0,0,1,203.4,37.8Z" fill="#35716f"/><path d="M200.3,189.1c.5,6.2-8.5,9.5-23.7,3.8-.5-14.7-4.3-42.7-4.3-42.7,4.7-6.3,9.9-9.8,14-14.8h0a29.9,29.9,0,0,0,5.3-9.7h0s-5.4,35.9-5.3,56.3C192.8,180.6,199.8,183,200.3,189.1Z" fill="#afdedc"/><path d="M198.9,74.9c1.9,9.5.9,11.4-5.7,17.1h0l-20.9-2.9c-17.5-2.4-3.3-47.9-3.3-47.9C181.8,47.4,193.7,64.5,198.9,74.9Z" fill="#35716f"/><path d="M193.2,92c1.8,16.5.9,26.7-1.5,33.8a29.9,29.9,0,0,1-5.3,9.7h0c-19.7,19.7-46.7,26.2-46.7,26.2-17.5-.5-43.1-13.3-43.1-13.3S53.6,126.7,45.9,107a60.7,60.7,0,0,1,10.3-6.5c-7.2-13.8-9.3-25-8.5-33.9h0C52.6,82,70.7,95.2,78.3,100.2h0a18,18,0,0,0,3.4,2.1h0c26,12.4,72.1-45.1,87.2-61.1,0,0-14.2,45.5,3.3,47.9Z" fill="#2bb4b4"/><path d="M164.3,207.2s17.1,5.7,12.8,12.8-28,2.6-28,2.6,3.3-40.6-9.5-60.9c0,0,27.1-6.5,46.7-26.2-4.1,5.1-9.3,8.6-14,14.8C161,165.4,164.3,207.2,164.3,207.2Z" fill="#35716f"/><path d="M75.7,33.7,90.3,44.1c-18.5.9-37.9,31.8-13.3,55l1.3,1.1c-7.7-5-25.7-18.2-30.6-33.6h0C50.1,41.4,75.7,33.7,75.7,33.7Z" fill="#afdedc"/><path d="M96.5,148.4S83.6,159,61.9,166.5a132.3,132.3,0,0,1-14.7,4.2h0A82.6,82.6,0,0,1,14,182c1.6-25.2,8.7-57.1,31.9-75.1C53.6,126.7,96.5,148.4,96.5,148.4Z" fill="#35716f"/><path d="M58.4,184.3c11.3,2,13,5.4,12.8,8.9-.5,9-10.7,8.1-25.9,2.4.6-7.9,2.4-15.2.6-23.9h0l1.3-1.1h0a132.3,132.3,0,0,0,14.7-4.2C57.3,172.2,58.4,179.5,58.4,184.3Z" fill="#afdedc"/><path d="M33,205.7s20.4,5.2,13.3,13.3S15,219,15,219a197.7,197.7,0,0,1-1-37,82.6,82.6,0,0,0,33.2-11.4l-1.3,1.1C35.6,181.3,33,205.7,33,205.7Z" fill="#2bb4b4"/></svg>