<svg xmlns="http://www.w3.org/2000/svg" width="1.9in" height="1.8in" data-name="Layer 1" viewBox="0 0 137.4 127.9"><path fill="#aededd" d="M52.3 9a14.1 14.1 0 0 1 9.2 6.9 31.9 31.9 0 0 1 3.2 7.2 33.7 33.7 0 0 1-1.8 24.4 17.9 17.9 0 0 1-5.3 6.8 10.6 10.6 0 0 1-14.2-.7c-3.7-3.4-5.7-7.7-6.8-12.5a34.2 34.2 0 0 1 1.3-20.6c2.1-5.6 5.4-10 11.6-11.5zm35.5 0c4.9 1.1 8.1 4.2 10.2 8.5a31.9 31.9 0 0 1 2.7 7.2c1.9 8.6 1.2 16.9-3.3 24.6-1.9 3.2-4.4 5.8-8.1 6.9s-8.5-.4-11.7-3.9a24.8 24.8 0 0 1-5.8-12.5A34.4 34.4 0 0 1 73.6 20c1.6-4 4-7.4 7.8-9.5A26.7 26.7 0 0 1 85 9zm6.5 111.6a22.5 22.5 0 0 1-11.8-3.7 17 17 0 0 0-8.4-2.5c-3.6-.2-7.2-.4-10.7.6a24.7 24.7 0 0 0-5.1 2.2 21.3 21.3 0 0 1-13.1 3.1 24.5 24.5 0 0 1-5.5-1.1 11 11 0 0 1-6.7-14.3 37.1 37.1 0 0 1 3.2-6.9 159.9 159.9 0 0 1 13.5-19.9 72 72 0 0 1 6-6.6 19.2 19.2 0 0 1 10.9-4.8 26.9 26.9 0 0 1 13.7 1.4c3.4 1.3 5.9 3.7 8.2 6.4a156.5 156.5 0 0 1 18.6 27.1 13.6 13.6 0 0 1 1.6 9.6c-1 4.6-4 7.4-8.5 8.5a56.8 56.8 0 0 1-5.9.9zm.9-52.7c.9-9.3 4.4-17.2 12.7-22.3a9.8 9.8 0 0 1 8.3-1.3c3.9 1.2 5.6 4.3 6.4 8 1.3 6.2-.4 12-3.4 17.4a22 22 0 0 1-9.5 9.5c-6.6 3.2-12.7.1-14-7.2-.2-1.3-.3-2.7-.5-4.1zm-53 .4a45.5 45.5 0 0 1-1.1 5.5c-1.9 5.9-7.2 8.2-12.9 5.7a21.2 21.2 0 0 1-9-8 27.1 27.1 0 0 1-4.9-15.8 18.5 18.5 0 0 1 .8-4.9c1.8-6 7.1-8.4 12.9-5.9a21.1 21.1 0 0 1 9.1 8.1 29.8 29.8 0 0 1 5.1 15.3z"/></svg>