<svg xmlns="http://www.w3.org/2000/svg" width="1.9in" height="1.8in" viewBox="0 0 137.4 127.9"><g fill="#aededd"><path d="M68.7 7.4a56.5 56.5 0 1 0 56.5 56.5A56.5 56.5 0 0 0 68.7 7.4M19 63.9a49.4 49.4 0 0 1 9.5-29.2c5.5 3.9.1 15.1 9.2 18.7.6.3 1.7-.8 3.1 0s2 1.7 2.8 3.4 1.1 4.2 4.2 6.5 10.2 4.2 15 6.2 5.9 4.8 4 10.7.8 8.2 4 12.1 5.4 4 4.8 9.9c-.3 3.8-5.3 8.2-5.1 11.3h-1.8A49.8 49.8 0 0 1 19 63.9m63.2 47.8a12.6 12.6 0 0 0 2.9-2.6c2.3-2.3 4.2-5.6 6.5-7.6s5.6-3.4 7.9-6.5c3.1-5.4 7.6-10.7 2.3-14.4a28.2 28.2 0 0 1-6.8-6.2c-2.5-3.1-4.5-2.8-7.9-3.7s-5.4-2.8-7.9-3.1-5.1 1.4-7.9 1.1-2.8-2.5-5.1-4.8-2.8-.3-3.7-1.1.8-3.1-.3-4.2-5.9.3-7.9-1.7 1.1-5.6 3.4-6.8c6.5-2.8 11.9 8.8 13.3.3.8-5.4 1.7-10.5 8.2-11.9 2-.6 5.9 1.7 7.6-.6s-2.3-2.8-3.4-4.8c2.5-.6 6.2 0 5.6-3.4s-5.6-3.4-7.9-4-5.4-3.4-7.9-3.1-2 4.2-4.5 5.9c-5.9 4-14.1-2.3-6.2-8.2l1.3-.7c6.2-.4 11.7 1.7 17.7 2.7a1.4 1.4 0 0 0 1.6-2.1c-.8-1.9-2.6-3.1-4.6-4.1l.8-.8A49.3 49.3 0 0 1 90 19c1.2 1.7 2.2 3.6 3.5 5.3a7.9 7.9 0 0 0 2 2 5 5 0 0 0 1.8.5l1.7 1.1c.6 1.2 0 2.9 1.7 3.8s3.7.8 5.6 1.3a1.3 1.3 0 0 0 1-.1 49.7 49.7 0 0 1-25.2 79"/><path d="M69.4 55a1.4 1.4 0 0 0-.6 2.7 1.2 1.2 0 0 0 .9.8 37.8 37.8 0 0 1 6 1.9c1.3.5 2.4-1.4 1.4-2.4a11.4 11.4 0 0 0-7.7-3zm13.4 3a8 8 0 0 0-1.8-.7h-.7c-1.6-.2-2.3 2.4-.6 2.7a6.3 6.3 0 0 1 1.7.4 1.4 1.4 0 0 0 1.4-2.4zm2.6-2.1a1.4 1.4 0 0 0 0 2.8 1.4 1.4 0 0 0 0-2.8z"/></g></svg>